<?xml version="1.0" encoding="utf-8"?><!-- Uploaded to: SVG Repo, www.svgrepo.com, Generator: SVG Repo Mixer Tools -->
<svg width="800px" height="800px" viewBox="0 -0.5 25 25" fill="none" xmlns="http://www.w3.org/2000/svg">
<path d="M14.5454 9.95475C14.2525 9.66186 13.7776 9.66188 13.4847 9.95478C13.1919 10.2477 13.1919 10.7226 13.4848 11.0154L14.5454 9.95475ZM14.0151 15.0291L13.4848 14.4987L13.4848 14.4988L14.0151 15.0291ZM10.9851 18.0591L11.5154 18.5894L10.9851 18.0591ZM6.44109 13.5151L6.97142 14.0454H6.97142L6.44109 13.5151ZM8.48642 12.5304C8.77932 12.2375 8.77932 11.7627 8.48642 11.4698C8.19353 11.1769 7.71866 11.1769 7.42576 11.4698L8.48642 12.5304ZM10.4548 14.0454C10.7477 14.3383 11.2226 14.3383 11.5154 14.0454C11.8083 13.7525 11.8083 13.2776 11.5154 12.9847L10.4548 14.0454ZM10.9851 8.97109L11.5154 9.50144L11.5154 9.50142L10.9851 8.97109ZM14.0151 5.94109L14.5454 6.47142L14.0151 5.94109ZM18.5591 5.94109L18.0288 6.47142V6.47142L18.5591 5.94109ZM18.5591 10.4851L19.0894 11.0154L18.5591 10.4851ZM16.5138 11.4698C16.2209 11.7627 16.2209 12.2375 16.5138 12.5304C16.8067 12.8233 17.2815 12.8233 17.5744 12.5304L16.5138 11.4698ZM13.4848 11.0154C13.9467 11.4773 14.2062 12.1038 14.2062 12.7571H15.7062C15.7062 11.706 15.2887 10.698 14.5454 9.95475L13.4848 11.0154ZM14.2062 12.7571C14.2062 13.4103 13.9467 14.0368 13.4848 14.4987L14.5454 15.5594C15.2887 14.8162 15.7062 13.8082 15.7062 12.7571H14.2062ZM13.4848 14.4988L10.4548 17.5288L11.5154 18.5894L14.5454 15.5594L13.4848 14.4988ZM10.4548 17.5288C9.49287 18.4907 7.93332 18.4907 6.97142 17.5288L5.91076 18.5894C7.45845 20.1371 9.96774 20.1371 11.5154 18.5894L10.4548 17.5288ZM6.97142 17.5288C6.00953 16.5669 6.00953 15.0073 6.97142 14.0454L5.91076 12.9848C4.36308 14.5324 4.36308 17.0417 5.91076 18.5894L6.97142 17.5288ZM6.97142 14.0454L8.48642 12.5304L7.42576 11.4698L5.91076 12.9848L6.97142 14.0454ZM11.5154 12.9847C11.0535 12.5228 10.794 11.8963 10.794 11.2431H9.29396C9.29396 12.2942 9.71152 13.3022 10.4548 14.0454L11.5154 12.9847ZM10.794 11.2431C10.794 10.5898 11.0535 9.96335 11.5154 9.50144L10.4548 8.44075C9.71152 9.18396 9.29396 10.192 9.29396 11.2431H10.794ZM11.5154 9.50142L14.5454 6.47142L13.4848 5.41076L10.4548 8.44076L11.5154 9.50142ZM14.5454 6.47142C15.5073 5.50953 17.0669 5.50953 18.0288 6.47142L19.0894 5.41076C17.5417 3.86308 15.0324 3.86308 13.4848 5.41076L14.5454 6.47142ZM18.0288 6.47142C18.9907 7.43332 18.9907 8.99287 18.0288 9.95476L19.0894 11.0154C20.6371 9.46774 20.6371 6.95845 19.0894 5.41076L18.0288 6.47142ZM18.0288 9.95476L16.5138 11.4698L17.5744 12.5304L19.0894 11.0154L18.0288 9.95476Z" fill="#000000"/>
</svg>